<mxfile host="app.diagrams.net" modified="2021-02-21T11:33:44.195Z" agent="5.0 (Windows NT 10.0; Win64; x64) AppleWebKit/537.36 (KHTML, like Gecko) Chrome/88.0.4324.182 Safari/537.36" etag="TIAEju4lhJc4xB5ZdDvI" version="14.4.2" type="github">
  <diagram id="1P1mNFOilG-ObWMaHaUi" name="Page-1">
    <mxGraphModel dx="2062" dy="1122" grid="1" gridSize="10" guides="1" tooltips="1" connect="1" arrows="1" fold="1" page="1" pageScale="1" pageWidth="850" pageHeight="1100" math="0" shadow="0">
      <root>
        <mxCell id="0" />
        <mxCell id="1" parent="0" />
      </root>
    </mxGraphModel>
  </diagram>
</mxfile>
